<mxfile host="app.diagrams.net" modified="2021-02-19T17:32:38.055Z" agent="5.0 (Macintosh)" etag="0WiM7vrGWYYi40gdxAFE" version="14.4.2" type="github">
  <diagram id="sP1BEkB5rZuLdxHkqu5_" name="Page-1">
    <mxGraphModel dx="1426" dy="808" grid="1" gridSize="10" guides="1" tooltips="1" connect="1" arrows="1" fold="1" page="1" pageScale="1" pageWidth="827" pageHeight="1169" math="0" shadow="0">
      <root>
        <mxCell id="0" />
        <mxCell id="1" parent="0" />
        <mxCell id="eLbIoZme7NKjvp2zswM4-2" value="&lt;div&gt;Creature&lt;/div&gt;" style="shape=umlActor;verticalLabelPosition=bottom;verticalAlign=top;html=1;outlineConnect=0;" vertex="1" parent="1">
          <mxGeometry x="384" y="100" width="30" height="60" as="geometry" />
        </mxCell>
        <mxCell id="eLbIoZme7NKjvp2zswM4-3" value="&lt;div&gt;&lt;b&gt;Flee&lt;/b&gt;&lt;br&gt;&lt;/div&gt;&lt;div&gt;from threat&lt;br&gt;&lt;/div&gt;" style="rounded=0;whiteSpace=wrap;html=1;" vertex="1" parent="1">
          <mxGeometry x="130" y="200" width="120" height="60" as="geometry" />
        </mxCell>
        <mxCell id="eLbIoZme7NKjvp2zswM4-5" value="&lt;div&gt;&lt;b&gt;Locate Food&lt;/b&gt;&lt;/div&gt;&lt;div&gt;&lt;b&gt;Roam&lt;br&gt;&lt;/b&gt;&lt;/div&gt;" style="whiteSpace=wrap;html=1;" vertex="1" parent="1">
          <mxGeometry x="270" y="200" width="120" height="60" as="geometry" />
        </mxCell>
        <mxCell id="eLbIoZme7NKjvp2zswM4-6" value="&lt;b&gt;Eat Food&lt;br&gt;&lt;/b&gt;" style="whiteSpace=wrap;html=1;" vertex="1" parent="1">
          <mxGeometry x="550" y="200" width="120" height="60" as="geometry" />
        </mxCell>
        <mxCell id="eLbIoZme7NKjvp2zswM4-8" value="&lt;div&gt;&lt;b&gt;Get Food&lt;/b&gt;&lt;/div&gt;" style="whiteSpace=wrap;html=1;" vertex="1" parent="1">
          <mxGeometry x="414" y="200" width="120" height="60" as="geometry" />
        </mxCell>
        <mxCell id="eLbIoZme7NKjvp2zswM4-10" value="&lt;div&gt;Lizard&lt;/div&gt;" style="shape=umlActor;verticalLabelPosition=bottom;verticalAlign=top;html=1;outlineConnect=0;" vertex="1" parent="1">
          <mxGeometry x="130" y="360" width="30" height="60" as="geometry" />
        </mxCell>
        <mxCell id="eLbIoZme7NKjvp2zswM4-11" value="&lt;b&gt;Melee Attack&lt;/b&gt;" style="whiteSpace=wrap;html=1;" vertex="1" parent="1">
          <mxGeometry x="10" y="450" width="120" height="60" as="geometry" />
        </mxCell>
        <mxCell id="eLbIoZme7NKjvp2zswM4-12" value="&lt;b&gt;Ranged Attack&lt;/b&gt;" style="whiteSpace=wrap;html=1;" vertex="1" parent="1">
          <mxGeometry x="150" y="450" width="120" height="60" as="geometry" />
        </mxCell>
        <mxCell id="eLbIoZme7NKjvp2zswM4-14" value="Attributes" style="swimlane;fontStyle=0;childLayout=stackLayout;horizontal=1;startSize=26;fillColor=none;horizontalStack=0;resizeParent=1;resizeParentMax=0;resizeLast=0;collapsible=1;marginBottom=0;" vertex="1" parent="1">
          <mxGeometry x="460" y="370" width="140" height="156" as="geometry" />
        </mxCell>
        <mxCell id="eLbIoZme7NKjvp2zswM4-16" value="Hunger Threshold" style="text;strokeColor=none;fillColor=none;align=left;verticalAlign=top;spacingLeft=4;spacingRight=4;overflow=hidden;rotatable=0;points=[[0,0.5],[1,0.5]];portConstraint=eastwest;" vertex="1" parent="eLbIoZme7NKjvp2zswM4-14">
          <mxGeometry y="26" width="140" height="26" as="geometry" />
        </mxCell>
        <mxCell id="eLbIoZme7NKjvp2zswM4-15" value="Hunger" style="text;strokeColor=none;fillColor=none;align=left;verticalAlign=top;spacingLeft=4;spacingRight=4;overflow=hidden;rotatable=0;points=[[0,0.5],[1,0.5]];portConstraint=eastwest;" vertex="1" parent="eLbIoZme7NKjvp2zswM4-14">
          <mxGeometry y="52" width="140" height="26" as="geometry" />
        </mxCell>
        <mxCell id="eLbIoZme7NKjvp2zswM4-17" value="Health" style="text;strokeColor=none;fillColor=none;align=left;verticalAlign=top;spacingLeft=4;spacingRight=4;overflow=hidden;rotatable=0;points=[[0,0.5],[1,0.5]];portConstraint=eastwest;" vertex="1" parent="eLbIoZme7NKjvp2zswM4-14">
          <mxGeometry y="78" width="140" height="26" as="geometry" />
        </mxCell>
        <mxCell id="eLbIoZme7NKjvp2zswM4-18" value="Health Regen Rate" style="text;strokeColor=none;fillColor=none;align=left;verticalAlign=top;spacingLeft=4;spacingRight=4;overflow=hidden;rotatable=0;points=[[0,0.5],[1,0.5]];portConstraint=eastwest;" vertex="1" parent="eLbIoZme7NKjvp2zswM4-14">
          <mxGeometry y="104" width="140" height="26" as="geometry" />
        </mxCell>
        <mxCell id="eLbIoZme7NKjvp2zswM4-19" value="Stamina" style="text;strokeColor=none;fillColor=none;align=left;verticalAlign=top;spacingLeft=4;spacingRight=4;overflow=hidden;rotatable=0;points=[[0,0.5],[1,0.5]];portConstraint=eastwest;" vertex="1" parent="eLbIoZme7NKjvp2zswM4-14">
          <mxGeometry y="130" width="140" height="26" as="geometry" />
        </mxCell>
      </root>
    </mxGraphModel>
  </diagram>
</mxfile>
